<svg width="512" height="512" viewBox="0 0 512 512" fill="none" xmlns="http://www.w3.org/2000/svg">
<g clip-path="url(#clip0_36_8)">
<path d="M46.5455 512C20.8391 512 0 491.161 0 465.455L0 256L0 46.5455C0 20.8391 20.8391 3.05176e-05 46.5455 3.05176e-05H256C397.385 3.05176e-05 512 114.615 512 256C512 397.385 397.385 512 256 512H46.5455Z" fill="#28B88D"/>
<path d="M98.3876 512C73.4773 512 65.4031 478.514 87.5762 467.161C259.729 379.019 259.729 132.981 87.5762 44.839C65.4032 33.4864 73.4773 3.05176e-05 98.3876 3.05176e-05H256C397.385 3.05176e-05 512 114.615 512 256C512 397.385 397.385 512 256 512H98.3876Z" fill="#3E4DED"/>
<path d="M306 256C278.386 256 256 233.614 256 206C256 178.386 278.386 156 306 156C333.614 156 356 178.386 356 206C356 233.614 333.614 256 306 256Z" fill="#28B88D"/>
</g>
<defs>
<clipPath id="clip0_36_8">
<rect width="512" height="512" rx="256" fill="white"/>
</clipPath>
</defs>
</svg>
